<mxfile host="app.diagrams.net" modified="2021-07-15T19:48:55.963Z" agent="5.0 (Windows NT 10.0; Win64; x64) AppleWebKit/537.36 (KHTML, like Gecko) Chrome/91.0.4472.124 Safari/537.36" etag="A7qnp2W4OPw0bnTSZLt0" version="14.8.6" type="github">
  <diagram id="C5RBs43oDa-KdzZeNtuy" name="Page-1">
    <mxGraphModel dx="1422" dy="794" grid="1" gridSize="10" guides="1" tooltips="1" connect="1" arrows="1" fold="1" page="1" pageScale="1" pageWidth="850" pageHeight="1100" math="0" shadow="0">
      <root>
        <mxCell id="WIyWlLk6GJQsqaUBKTNV-0" />
        <mxCell id="WIyWlLk6GJQsqaUBKTNV-1" parent="WIyWlLk6GJQsqaUBKTNV-0" />
        <mxCell id="Dk7Axvjhe-ouTe_fYZQp-10" style="edgeStyle=orthogonalEdgeStyle;rounded=0;orthogonalLoop=1;jettySize=auto;html=1;entryX=0.5;entryY=0;entryDx=0;entryDy=0;" edge="1" parent="WIyWlLk6GJQsqaUBKTNV-1" source="Dk7Axvjhe-ouTe_fYZQp-7" target="Dk7Axvjhe-ouTe_fYZQp-8">
          <mxGeometry relative="1" as="geometry" />
        </mxCell>
        <mxCell id="Dk7Axvjhe-ouTe_fYZQp-7" value="POS (AVELON)" style="whiteSpace=wrap;html=1;aspect=fixed;" vertex="1" parent="WIyWlLk6GJQsqaUBKTNV-1">
          <mxGeometry x="217.5" y="166" width="65" height="65" as="geometry" />
        </mxCell>
        <mxCell id="Dk7Axvjhe-ouTe_fYZQp-14" style="edgeStyle=orthogonalEdgeStyle;rounded=0;orthogonalLoop=1;jettySize=auto;html=1;entryX=0.5;entryY=0;entryDx=0;entryDy=0;" edge="1" parent="WIyWlLk6GJQsqaUBKTNV-1" source="Dk7Axvjhe-ouTe_fYZQp-8" target="Dk7Axvjhe-ouTe_fYZQp-13">
          <mxGeometry relative="1" as="geometry" />
        </mxCell>
        <mxCell id="Dk7Axvjhe-ouTe_fYZQp-8" value="ENVIO DE MERCADERIA SIN ORDEN PREVIA" style="whiteSpace=wrap;html=1;aspect=fixed;" vertex="1" parent="WIyWlLk6GJQsqaUBKTNV-1">
          <mxGeometry x="205" y="246" width="90" height="90" as="geometry" />
        </mxCell>
        <mxCell id="Dk7Axvjhe-ouTe_fYZQp-17" style="edgeStyle=orthogonalEdgeStyle;rounded=0;orthogonalLoop=1;jettySize=auto;html=1;entryX=0.5;entryY=0;entryDx=0;entryDy=0;" edge="1" parent="WIyWlLk6GJQsqaUBKTNV-1" source="Dk7Axvjhe-ouTe_fYZQp-11" target="Dk7Axvjhe-ouTe_fYZQp-16">
          <mxGeometry relative="1" as="geometry" />
        </mxCell>
        <mxCell id="Dk7Axvjhe-ouTe_fYZQp-11" value="GENERAR DOCUMENTO FISCAL" style="whiteSpace=wrap;html=1;aspect=fixed;" vertex="1" parent="WIyWlLk6GJQsqaUBKTNV-1">
          <mxGeometry x="205" y="446" width="90" height="90" as="geometry" />
        </mxCell>
        <mxCell id="Dk7Axvjhe-ouTe_fYZQp-21" value="" style="edgeStyle=orthogonalEdgeStyle;rounded=0;orthogonalLoop=1;jettySize=auto;html=1;" edge="1" parent="WIyWlLk6GJQsqaUBKTNV-1" source="Dk7Axvjhe-ouTe_fYZQp-13" target="Dk7Axvjhe-ouTe_fYZQp-11">
          <mxGeometry relative="1" as="geometry" />
        </mxCell>
        <mxCell id="Dk7Axvjhe-ouTe_fYZQp-13" value="ALBARAN DE ENVIO" style="shape=document;whiteSpace=wrap;html=1;boundedLbl=1;" vertex="1" parent="WIyWlLk6GJQsqaUBKTNV-1">
          <mxGeometry x="190" y="356" width="120" height="70" as="geometry" />
        </mxCell>
        <mxCell id="Dk7Axvjhe-ouTe_fYZQp-29" style="edgeStyle=orthogonalEdgeStyle;rounded=0;orthogonalLoop=1;jettySize=auto;html=1;entryX=0.5;entryY=0;entryDx=0;entryDy=0;" edge="1" parent="WIyWlLk6GJQsqaUBKTNV-1" source="Dk7Axvjhe-ouTe_fYZQp-16" target="Dk7Axvjhe-ouTe_fYZQp-28">
          <mxGeometry relative="1" as="geometry" />
        </mxCell>
        <mxCell id="Dk7Axvjhe-ouTe_fYZQp-16" value="DOCUMENTO FISCAL (GUIA DE DESPACHO) (DURACION 24H)" style="shape=document;whiteSpace=wrap;html=1;boundedLbl=1;" vertex="1" parent="WIyWlLk6GJQsqaUBKTNV-1">
          <mxGeometry x="190" y="556" width="120" height="110" as="geometry" />
        </mxCell>
        <mxCell id="Dk7Axvjhe-ouTe_fYZQp-23" value="" style="shape=ext;double=1;rounded=0;whiteSpace=wrap;html=1;" vertex="1" parent="WIyWlLk6GJQsqaUBKTNV-1">
          <mxGeometry width="850" height="60" as="geometry" />
        </mxCell>
        <mxCell id="Dk7Axvjhe-ouTe_fYZQp-20" value="DEVOLUCIÓN DE MERCADERIA &lt;br&gt;DE TIENDA A CENTRO DE DISTRIBUCIÓN" style="text;strokeColor=none;fillColor=none;html=1;fontSize=24;fontStyle=1;verticalAlign=middle;align=center;" vertex="1" parent="WIyWlLk6GJQsqaUBKTNV-1">
          <mxGeometry x="390" y="10" width="100" height="40" as="geometry" />
        </mxCell>
        <mxCell id="Dk7Axvjhe-ouTe_fYZQp-24" value="Inicio" style="ellipse;whiteSpace=wrap;html=1;aspect=fixed;" vertex="1" parent="WIyWlLk6GJQsqaUBKTNV-1">
          <mxGeometry x="224.5" y="100" width="55" height="55" as="geometry" />
        </mxCell>
        <mxCell id="Dk7Axvjhe-ouTe_fYZQp-27" value="" style="endArrow=classic;html=1;exitX=0.5;exitY=1;exitDx=0;exitDy=0;" edge="1" parent="WIyWlLk6GJQsqaUBKTNV-1">
          <mxGeometry width="50" height="50" relative="1" as="geometry">
            <mxPoint x="250" y="155" as="sourcePoint" />
            <mxPoint x="250" y="166" as="targetPoint" />
          </mxGeometry>
        </mxCell>
        <mxCell id="Dk7Axvjhe-ouTe_fYZQp-37" style="edgeStyle=orthogonalEdgeStyle;rounded=0;orthogonalLoop=1;jettySize=auto;html=1;entryX=0.5;entryY=0;entryDx=0;entryDy=0;" edge="1" parent="WIyWlLk6GJQsqaUBKTNV-1" source="Dk7Axvjhe-ouTe_fYZQp-28" target="Dk7Axvjhe-ouTe_fYZQp-36">
          <mxGeometry relative="1" as="geometry" />
        </mxCell>
        <mxCell id="Dk7Axvjhe-ouTe_fYZQp-28" value="TIENDA ENTREGA A BULTOS TRANSPORTE" style="whiteSpace=wrap;html=1;aspect=fixed;" vertex="1" parent="WIyWlLk6GJQsqaUBKTNV-1">
          <mxGeometry x="203" y="680" width="94" height="94" as="geometry" />
        </mxCell>
        <mxCell id="Dk7Axvjhe-ouTe_fYZQp-55" style="edgeStyle=orthogonalEdgeStyle;rounded=0;orthogonalLoop=1;jettySize=auto;html=1;" edge="1" parent="WIyWlLk6GJQsqaUBKTNV-1" source="Dk7Axvjhe-ouTe_fYZQp-32">
          <mxGeometry relative="1" as="geometry">
            <mxPoint x="569.5" y="810" as="targetPoint" />
          </mxGeometry>
        </mxCell>
        <mxCell id="Dk7Axvjhe-ouTe_fYZQp-32" value="LOSGISTICA INVERSA RECIBE DE TRANSPORTE" style="whiteSpace=wrap;html=1;aspect=fixed;" vertex="1" parent="WIyWlLk6GJQsqaUBKTNV-1">
          <mxGeometry x="526" y="840" width="87" height="87" as="geometry" />
        </mxCell>
        <mxCell id="Dk7Axvjhe-ouTe_fYZQp-43" style="edgeStyle=orthogonalEdgeStyle;rounded=0;orthogonalLoop=1;jettySize=auto;html=1;entryX=1;entryY=0.5;entryDx=0;entryDy=0;" edge="1" parent="WIyWlLk6GJQsqaUBKTNV-1" source="Dk7Axvjhe-ouTe_fYZQp-36" target="Dk7Axvjhe-ouTe_fYZQp-11">
          <mxGeometry relative="1" as="geometry">
            <mxPoint x="330" y="490" as="targetPoint" />
            <Array as="points">
              <mxPoint x="320" y="835" />
              <mxPoint x="320" y="491" />
            </Array>
          </mxGeometry>
        </mxCell>
        <mxCell id="Dk7Axvjhe-ouTe_fYZQp-45" style="edgeStyle=orthogonalEdgeStyle;rounded=0;orthogonalLoop=1;jettySize=auto;html=1;entryX=0.5;entryY=0;entryDx=0;entryDy=0;" edge="1" parent="WIyWlLk6GJQsqaUBKTNV-1" source="Dk7Axvjhe-ouTe_fYZQp-36" target="Dk7Axvjhe-ouTe_fYZQp-44">
          <mxGeometry relative="1" as="geometry" />
        </mxCell>
        <mxCell id="Dk7Axvjhe-ouTe_fYZQp-36" value="&lt;font style=&quot;font-size: 7px&quot;&gt;BULTO CON &lt;br&gt;GUIA DE DESPACHO&lt;/font&gt;" style="rhombus;whiteSpace=wrap;html=1;" vertex="1" parent="WIyWlLk6GJQsqaUBKTNV-1">
          <mxGeometry x="200" y="790" width="100" height="90" as="geometry" />
        </mxCell>
        <mxCell id="Dk7Axvjhe-ouTe_fYZQp-39" value="SI" style="text;html=1;strokeColor=none;fillColor=none;align=center;verticalAlign=middle;whiteSpace=wrap;rounded=0;" vertex="1" parent="WIyWlLk6GJQsqaUBKTNV-1">
          <mxGeometry x="248.5" y="880" width="40" height="20" as="geometry" />
        </mxCell>
        <mxCell id="Dk7Axvjhe-ouTe_fYZQp-40" value="NO" style="text;html=1;strokeColor=none;fillColor=none;align=center;verticalAlign=middle;whiteSpace=wrap;rounded=0;" vertex="1" parent="WIyWlLk6GJQsqaUBKTNV-1">
          <mxGeometry x="288.5" y="810" width="40" height="20" as="geometry" />
        </mxCell>
        <mxCell id="Dk7Axvjhe-ouTe_fYZQp-46" style="edgeStyle=orthogonalEdgeStyle;rounded=0;orthogonalLoop=1;jettySize=auto;html=1;entryX=1;entryY=0.5;entryDx=0;entryDy=0;" edge="1" parent="WIyWlLk6GJQsqaUBKTNV-1" source="Dk7Axvjhe-ouTe_fYZQp-44" target="Dk7Axvjhe-ouTe_fYZQp-8">
          <mxGeometry relative="1" as="geometry">
            <mxPoint x="360" y="290" as="targetPoint" />
            <Array as="points">
              <mxPoint x="350" y="955" />
              <mxPoint x="350" y="291" />
            </Array>
          </mxGeometry>
        </mxCell>
        <mxCell id="Dk7Axvjhe-ouTe_fYZQp-49" style="edgeStyle=orthogonalEdgeStyle;rounded=0;orthogonalLoop=1;jettySize=auto;html=1;entryX=-0.029;entryY=0.556;entryDx=0;entryDy=0;entryPerimeter=0;" edge="1" parent="WIyWlLk6GJQsqaUBKTNV-1" source="Dk7Axvjhe-ouTe_fYZQp-44" target="Dk7Axvjhe-ouTe_fYZQp-48">
          <mxGeometry relative="1" as="geometry">
            <mxPoint x="250" y="1020" as="targetPoint" />
            <Array as="points">
              <mxPoint x="250" y="1018" />
            </Array>
          </mxGeometry>
        </mxCell>
        <mxCell id="Dk7Axvjhe-ouTe_fYZQp-44" value="&lt;font style=&quot;font-size: 7px&quot;&gt;BULTO CON &lt;br&gt;ALBARAN&lt;/font&gt;" style="rhombus;whiteSpace=wrap;html=1;" vertex="1" parent="WIyWlLk6GJQsqaUBKTNV-1">
          <mxGeometry x="200" y="910" width="100" height="90" as="geometry" />
        </mxCell>
        <mxCell id="Dk7Axvjhe-ouTe_fYZQp-47" value="NO" style="text;html=1;strokeColor=none;fillColor=none;align=center;verticalAlign=middle;whiteSpace=wrap;rounded=0;" vertex="1" parent="WIyWlLk6GJQsqaUBKTNV-1">
          <mxGeometry x="300" y="930" width="40" height="20" as="geometry" />
        </mxCell>
        <mxCell id="Dk7Axvjhe-ouTe_fYZQp-51" style="edgeStyle=orthogonalEdgeStyle;rounded=0;orthogonalLoop=1;jettySize=auto;html=1;entryX=0;entryY=0.5;entryDx=0;entryDy=0;" edge="1" parent="WIyWlLk6GJQsqaUBKTNV-1" source="Dk7Axvjhe-ouTe_fYZQp-48" target="Dk7Axvjhe-ouTe_fYZQp-50">
          <mxGeometry relative="1" as="geometry" />
        </mxCell>
        <mxCell id="Dk7Axvjhe-ouTe_fYZQp-48" value="TRANSPORTE RECIBE BULTO DE TIENDA" style="whiteSpace=wrap;html=1;aspect=fixed;" vertex="1" parent="WIyWlLk6GJQsqaUBKTNV-1">
          <mxGeometry x="390" y="966" width="94" height="94" as="geometry" />
        </mxCell>
        <mxCell id="Dk7Axvjhe-ouTe_fYZQp-53" style="edgeStyle=orthogonalEdgeStyle;rounded=0;orthogonalLoop=1;jettySize=auto;html=1;" edge="1" parent="WIyWlLk6GJQsqaUBKTNV-1" source="Dk7Axvjhe-ouTe_fYZQp-50">
          <mxGeometry relative="1" as="geometry">
            <mxPoint x="573" y="930" as="targetPoint" />
          </mxGeometry>
        </mxCell>
        <mxCell id="Dk7Axvjhe-ouTe_fYZQp-50" value="TRANSPORTE ENTREGA LOGISTICA INVERSA" style="whiteSpace=wrap;html=1;aspect=fixed;" vertex="1" parent="WIyWlLk6GJQsqaUBKTNV-1">
          <mxGeometry x="526" y="966" width="94" height="94" as="geometry" />
        </mxCell>
        <mxCell id="Dk7Axvjhe-ouTe_fYZQp-52" value="SI" style="text;html=1;strokeColor=none;fillColor=none;align=center;verticalAlign=middle;whiteSpace=wrap;rounded=0;" vertex="1" parent="WIyWlLk6GJQsqaUBKTNV-1">
          <mxGeometry x="260" y="990" width="40" height="20" as="geometry" />
        </mxCell>
        <mxCell id="Dk7Axvjhe-ouTe_fYZQp-60" style="edgeStyle=orthogonalEdgeStyle;rounded=0;orthogonalLoop=1;jettySize=auto;html=1;entryX=0.5;entryY=1;entryDx=0;entryDy=0;" edge="1" parent="WIyWlLk6GJQsqaUBKTNV-1" source="Dk7Axvjhe-ouTe_fYZQp-54" target="Dk7Axvjhe-ouTe_fYZQp-56">
          <mxGeometry relative="1" as="geometry" />
        </mxCell>
        <mxCell id="Dk7Axvjhe-ouTe_fYZQp-54" value="AUDITORIA&amp;nbsp;&lt;br&gt;POR BULTO (INVENTARIO)" style="whiteSpace=wrap;html=1;aspect=fixed;" vertex="1" parent="WIyWlLk6GJQsqaUBKTNV-1">
          <mxGeometry x="526.5" y="610" width="87" height="87" as="geometry" />
        </mxCell>
        <mxCell id="Dk7Axvjhe-ouTe_fYZQp-62" style="edgeStyle=orthogonalEdgeStyle;rounded=0;orthogonalLoop=1;jettySize=auto;html=1;entryX=0;entryY=0.54;entryDx=0;entryDy=0;entryPerimeter=0;" edge="1" parent="WIyWlLk6GJQsqaUBKTNV-1" source="Dk7Axvjhe-ouTe_fYZQp-56" target="Dk7Axvjhe-ouTe_fYZQp-61">
          <mxGeometry relative="1" as="geometry" />
        </mxCell>
        <mxCell id="Dk7Axvjhe-ouTe_fYZQp-63" style="edgeStyle=orthogonalEdgeStyle;rounded=0;orthogonalLoop=1;jettySize=auto;html=1;" edge="1" parent="WIyWlLk6GJQsqaUBKTNV-1" source="Dk7Axvjhe-ouTe_fYZQp-56">
          <mxGeometry relative="1" as="geometry">
            <mxPoint x="569.5" y="430" as="targetPoint" />
          </mxGeometry>
        </mxCell>
        <mxCell id="Dk7Axvjhe-ouTe_fYZQp-56" value="&lt;font style=&quot;font-size: 7px&quot;&gt;AUDITORIA SIN DIFERENCIAS&lt;/font&gt;" style="rhombus;whiteSpace=wrap;html=1;" vertex="1" parent="WIyWlLk6GJQsqaUBKTNV-1">
          <mxGeometry x="529.5" y="510" width="80" height="80" as="geometry" />
        </mxCell>
        <mxCell id="Dk7Axvjhe-ouTe_fYZQp-59" style="edgeStyle=orthogonalEdgeStyle;rounded=0;orthogonalLoop=1;jettySize=auto;html=1;" edge="1" parent="WIyWlLk6GJQsqaUBKTNV-1" source="Dk7Axvjhe-ouTe_fYZQp-57">
          <mxGeometry relative="1" as="geometry">
            <mxPoint x="569.5" y="700" as="targetPoint" />
          </mxGeometry>
        </mxCell>
        <mxCell id="Dk7Axvjhe-ouTe_fYZQp-57" value="ACEPTAR DEVOLUCION DE BULTOS EN INTRANET" style="whiteSpace=wrap;html=1;aspect=fixed;" vertex="1" parent="WIyWlLk6GJQsqaUBKTNV-1">
          <mxGeometry x="526" y="723" width="87" height="87" as="geometry" />
        </mxCell>
        <mxCell id="Dk7Axvjhe-ouTe_fYZQp-69" style="edgeStyle=orthogonalEdgeStyle;rounded=0;orthogonalLoop=1;jettySize=auto;html=1;entryX=1;entryY=0.5;entryDx=0;entryDy=0;" edge="1" parent="WIyWlLk6GJQsqaUBKTNV-1" source="Dk7Axvjhe-ouTe_fYZQp-61" target="Dk7Axvjhe-ouTe_fYZQp-67">
          <mxGeometry relative="1" as="geometry">
            <Array as="points">
              <mxPoint x="694" y="288" />
            </Array>
          </mxGeometry>
        </mxCell>
        <mxCell id="Dk7Axvjhe-ouTe_fYZQp-61" value="SE ALMACENA (SE CARGA EN WMS)" style="whiteSpace=wrap;html=1;aspect=fixed;" vertex="1" parent="WIyWlLk6GJQsqaUBKTNV-1">
          <mxGeometry x="650" y="503" width="87" height="87" as="geometry" />
        </mxCell>
        <mxCell id="Dk7Axvjhe-ouTe_fYZQp-64" value="NO" style="text;html=1;strokeColor=none;fillColor=none;align=center;verticalAlign=middle;whiteSpace=wrap;rounded=0;" vertex="1" parent="WIyWlLk6GJQsqaUBKTNV-1">
          <mxGeometry x="569.5" y="470" width="40" height="20" as="geometry" />
        </mxCell>
        <mxCell id="Dk7Axvjhe-ouTe_fYZQp-65" value="&lt;font style=&quot;font-size: 16px&quot;&gt;?&lt;/font&gt;" style="text;html=1;strokeColor=none;fillColor=none;align=center;verticalAlign=middle;whiteSpace=wrap;rounded=0;" vertex="1" parent="WIyWlLk6GJQsqaUBKTNV-1">
          <mxGeometry x="550" y="400" width="40" height="20" as="geometry" />
        </mxCell>
        <mxCell id="Dk7Axvjhe-ouTe_fYZQp-66" value="SI" style="text;html=1;strokeColor=none;fillColor=none;align=center;verticalAlign=middle;whiteSpace=wrap;rounded=0;" vertex="1" parent="WIyWlLk6GJQsqaUBKTNV-1">
          <mxGeometry x="600" y="530" width="40" height="20" as="geometry" />
        </mxCell>
        <mxCell id="Dk7Axvjhe-ouTe_fYZQp-67" value="FIN" style="ellipse;whiteSpace=wrap;html=1;aspect=fixed;" vertex="1" parent="WIyWlLk6GJQsqaUBKTNV-1">
          <mxGeometry x="545.5" y="260" width="55" height="55" as="geometry" />
        </mxCell>
      </root>
    </mxGraphModel>
  </diagram>
</mxfile>
